{"glyphs":{"0":{"ha":857,"x_min":100,"x_max":807,"o":"m 807 356 q 705 105 807 207 q 454 3 603 3 q 202 105 304 3 q 100 356 100 207 q 203 607 100 504 q 454 710 306 710 q 706 607 604 710 q 807 356 807 504 m 632 363 q 581 486 632 435 q 454 538 529 538 q 324 485 376 538 q 272 356 272 433 q 325 226 272 279 q 454 174 378 174 q 583 226 532 174 q 635 356 635 279 l 632 363 "},"1":{"ha":485,"x_min":99,"x_max":450,"o":"m 99 710 l 450 708 l 450 3 l 278 3 l 278 536 l 100 536 l 99 710 "},"2":{"ha":671,"x_min":100,"x_max":628,"o":"m 625 -175 l 100 -176 l 100 3 q 354 242 265 139 q 456 435 456 360 l 454 439 q 423 509 454 481 q 347 538 392 538 l 332 536 l 100 536 l 100 708 l 332 708 q 542 624 456 708 q 628 418 628 539 q 558 255 628 351 q 325 -4 488 158 l 625 0 l 625 -175 "},"3":{"ha":660,"x_min":99,"x_max":621,"o":"m 99 176 l 300 176 q 410 228 365 176 q 454 356 454 279 q 410 485 454 433 q 300 538 367 538 l 99 536 l 99 708 l 283 708 q 403 759 356 708 q 451 886 451 810 l 621 886 q 553 700 621 767 q 413 624 496 624 q 397 625 408 624 q 553 508 493 593 q 613 313 613 422 q 613 297 613 307 q 611 279 613 288 q 513 80 593 157 q 322 3 432 3 l 99 3 l 99 176 "},"4":{"ha":799,"x_min":100,"x_max":746,"o":"m 746 3 l 628 3 l 628 -176 l 456 -176 l 456 3 l 100 3 l 100 181 l 397 708 l 599 708 l 307 176 l 746 176 l 746 3 "},"5":{"ha":735,"x_min":96,"x_max":688,"o":"m 269 886 l 272 708 l 328 710 q 583 607 479 710 q 688 356 688 504 q 583 104 688 206 q 328 3 479 3 l 99 3 l 99 174 l 332 174 q 463 226 410 174 q 515 356 515 279 q 463 486 515 435 q 332 538 410 538 l 96 539 l 96 886 l 269 886 "},"6":{"ha":857,"x_min":99,"x_max":807,"o":"m 635 356 q 583 485 635 433 q 454 538 531 538 q 324 485 376 538 q 272 356 272 433 q 325 226 272 279 q 454 174 378 174 q 583 226 532 174 q 635 356 635 279 m 625 886 q 553 810 569 828 q 486 708 494 744 l 471 708 q 683 631 594 708 q 799 428 772 553 q 807 349 807 388 q 756 169 807 251 q 614 42 704 88 q 449 1 535 1 q 192 119 297 1 q 99 356 99 222 q 154 542 99 457 q 285 735 208 643 q 421 886 353 810 l 625 886 "},"7":{"ha":735,"x_min":99,"x_max":688,"o":"m 99 710 l 688 708 l 688 536 l 301 -117 l 100 -117 l 486 536 l 100 536 l 99 710 "},"8":{"ha":857,"x_min":96,"x_max":806,"o":"m 635 358 q 582 486 635 435 q 454 538 529 538 q 324 485 376 538 q 272 356 272 433 q 325 226 272 279 q 454 174 378 174 q 583 226 532 174 q 635 358 635 279 m 806 886 q 756 738 792 797 q 665 639 721 679 q 770 507 735 582 q 806 356 806 432 q 715 122 806 219 q 454 3 618 17 q 192 110 293 3 q 99 349 99 208 q 134 506 99 431 q 240 639 169 582 q 140 744 178 681 q 96 886 103 807 l 269 886 q 335 758 281 806 q 449 717 383 717 q 567 761 515 717 q 632 886 619 806 l 806 886 "},"9":{"ha":868,"x_min":100,"x_max":815,"o":"m 276 701 q 329 572 276 625 q 457 519 382 519 q 587 572 535 519 q 639 701 639 624 q 586 831 639 778 q 457 883 533 883 q 328 831 379 883 q 276 701 276 778 m 278 172 q 376 269 343 231 q 425 349 417 315 q 225 428 313 349 q 113 629 138 507 q 100 729 100 688 q 119 833 100 788 q 151 886 131 858 l 763 886 q 801 820 788 863 q 815 722 815 778 q 801 615 815 668 q 757 515 788 563 q 626 322 703 414 q 492 172 558 247 l 278 172 "}," ":{"ha":396,"x_min":0,"x_max":0,"o":""},"!":{"ha":299,"x_min":99,"x_max":272,"o":"m 99 174 l 269 174 l 272 0 l 101 0 l 99 174 m 214 238 l 160 238 l 101 410 l 101 885 l 272 885 l 272 410 l 214 238 "},"\"":{"ha":549,"x_min":100,"x_max":510,"o":"m 160 711 l 100 771 l 100 883 l 272 883 l 272 771 l 213 711 l 160 711 m 397 711 l 338 771 l 338 883 l 510 883 l 510 771 l 450 711 l 397 711 "},"#":{"ha":742,"x_min":100,"x_max":694,"o":"m 163 221 l 179 285 l 100 285 l 100 396 l 210 396 l 235 515 l 163 515 l 163 633 l 265 633 l 282 689 l 393 689 l 376 633 l 504 633 l 519 689 l 631 689 l 615 633 l 694 633 l 694 515 l 590 515 l 551 396 l 631 396 l 631 285 l 528 285 l 511 221 l 401 221 l 417 285 l 290 285 l 274 221 l 163 221 m 314 396 l 346 515 l 481 515 l 440 396 l 314 396 "},"$":{"ha":611,"x_min":99,"x_max":568,"o":"m 99 172 l 100 -1 l 156 1 l 156 -119 l 210 -119 l 210 1 l 272 -1 q 482 85 396 -1 q 568 296 568 171 q 490 496 568 417 q 346 628 418 561 q 269 885 269 722 l 210 885 l 210 1003 l 156 1003 l 156 885 l 99 885 q 176 608 99 710 q 323 472 249 542 q 397 296 397 403 q 360 208 397 243 q 269 172 324 172 l 99 172 "},"%":{"ha":1174,"x_min":99,"x_max":1103,"o":"m 510 651 q 451 527 510 578 q 304 476 392 476 q 158 528 218 476 q 99 651 99 579 q 158 776 99 725 q 304 828 218 828 q 450 776 390 828 q 510 651 510 725 m 371 654 q 351 697 371 681 q 303 714 332 714 q 253 696 274 714 q 232 654 232 678 q 253 611 232 628 q 303 594 274 594 q 352 613 332 594 q 371 654 372 631 m 1103 179 q 1044 52 1103 103 q 899 1 985 1 q 753 53 813 1 q 693 178 693 104 q 752 302 693 251 q 899 353 811 353 q 1044 303 986 353 q 1103 179 1103 253 m 981 188 q 954 224 975 210 q 903 239 933 239 q 851 222 872 239 q 829 179 829 204 q 850 138 829 154 q 903 121 871 121 q 981 188 969 121 m 338 3 l 697 826 l 869 826 l 511 3 l 338 3 "},"&":{"ha":921,"x_min":100,"x_max":865,"o":"m 746 886 l 746 710 l 865 708 l 865 536 l 747 536 l 747 3 l 400 3 q 198 84 281 3 q 103 289 115 165 q 160 505 103 413 q 307 625 218 597 q 163 703 226 625 q 100 886 100 781 l 272 886 q 316 760 272 813 q 422 708 360 708 l 511 708 l 511 536 l 426 538 q 317 485 361 538 q 274 356 274 433 q 318 226 274 279 q 426 174 363 174 l 579 174 l 578 886 l 746 886 "},"'":{"ha":694,"x_min":0,"x_max":0,"o":""},"(":{"ha":489,"x_min":100,"x_max":454,"o":"m 365 -176 q 176 -17 251 -165 q 100 356 100 132 q 176 727 100 579 q 365 886 253 875 l 451 885 l 451 714 l 424 714 q 317 605 360 706 q 275 357 275 504 q 317 109 275 208 q 424 1 360 10 l 454 -4 l 454 -176 l 365 -176 "},")":{"ha":489,"x_min":103,"x_max":453,"o":"m 176 886 q 374 726 296 875 q 453 356 453 578 q 373 -16 453 133 q 176 -176 293 -165 l 103 -176 l 103 -4 l 157 -4 q 247 103 211 3 q 282 356 282 204 q 246 607 282 507 q 157 714 210 707 l 103 714 l 103 886 l 176 886 "},"*":{"ha":549,"x_min":99,"x_max":510,"o":"m 99 767 l 272 679 l 100 596 l 99 767 m 390 886 l 307 714 l 218 886 l 390 886 m 507 599 l 325 679 l 510 768 l 507 599 m 217 478 l 307 649 l 390 478 l 217 478 "},"+":{"ha":671,"x_min":100,"x_max":628,"o":"m 276 63 l 278 239 l 100 239 l 100 411 l 278 411 l 278 590 l 450 590 l 450 411 l 628 411 l 628 239 l 450 239 l 450 61 l 276 63 "},",":{"ha":299,"x_min":99,"x_max":272,"o":"m 100 174 l 272 174 l 272 3 q 246 -108 272 -58 q 176 -178 219 -157 l 103 -178 q 177 -111 147 -161 q 207 6 207 -61 l 99 6 l 100 174 "},"-":{"ha":549,"x_min":99,"x_max":510,"o":"m 99 415 l 507 415 l 510 239 l 100 239 l 99 415 "},".":{"ha":299,"x_min":99,"x_max":272,"o":"m 269 176 l 272 3 l 100 3 l 99 176 l 269 176 "},"/":{"ha":671,"x_min":103,"x_max":628,"o":"m 103 3 l 456 826 l 628 826 l 269 3 l 103 3 "},":":{"ha":299,"x_min":99,"x_max":272,"o":"m 99 532 l 272 531 l 272 358 l 100 358 l 99 532 m 99 176 l 269 176 l 272 3 l 100 3 l 99 176 "},";":{"ha":299,"x_min":99,"x_max":272,"o":"m 99 532 l 272 531 l 272 358 l 100 358 l 99 532 m 100 174 l 272 174 l 272 3 q 245 -108 272 -61 q 169 -175 218 -156 l 99 -175 q 176 -111 144 -161 q 207 3 207 -61 l 100 3 l 100 174 "},"<":{"ha":549,"x_min":100,"x_max":510,"o":"m 338 3 l 100 269 l 338 531 l 510 531 l 272 269 l 510 3 l 338 3 "},"=":{"ha":611,"x_min":99,"x_max":568,"o":"m 99 472 l 568 471 l 568 358 l 100 358 l 99 472 m 99 294 l 568 293 l 568 181 l 100 181 l 99 294 "},">":{"ha":549,"x_min":100,"x_max":510,"o":"m 269 532 l 510 269 l 272 3 l 100 3 l 338 269 l 100 531 l 269 532 "},"?":{"ha":549,"x_min":99,"x_max":511,"o":"m 99 176 l 269 176 l 272 3 l 100 3 l 99 176 m 100 714 l 100 888 q 393 794 275 888 q 511 564 511 701 q 392 333 511 428 q 100 239 272 239 l 100 411 l 153 411 q 285 455 232 411 q 339 564 339 499 q 285 672 339 628 q 153 715 232 715 l 100 714 "},"@":{"ha":981,"x_min":96,"x_max":922,"o":"m 624 -114 q 507 -129 569 -129 q 316 -85 404 -129 q 169 44 228 -40 q 96 263 96 144 q 118 385 96 325 q 182 494 140 444 q 326 610 242 569 q 506 651 411 651 q 643 629 576 651 q 848 488 774 588 q 922 261 922 388 q 890 176 922 213 q 803 126 857 139 q 757 121 782 121 q 619 186 669 121 q 506 122 586 122 q 424 142 465 122 q 336 265 336 186 q 347 317 336 290 q 414 388 369 363 q 514 413 458 413 q 540 411 532 413 q 644 358 604 399 q 685 267 685 318 q 718 221 685 221 q 749 264 749 221 q 698 399 749 340 q 568 479 647 458 q 499 489 535 489 q 294 382 367 489 q 258 269 258 326 q 324 119 258 188 q 499 49 399 49 q 624 76 560 49 l 624 -114 m 568 267 q 549 303 565 289 q 507 318 533 318 q 462 302 479 318 q 442 261 444 286 q 463 221 443 238 q 507 204 482 204 q 568 267 568 215 "},"A":{"ha":860,"x_min":101,"x_max":806,"o":"m 561 243 l 101 243 l 101 536 q 204 785 101 683 q 454 886 307 886 q 704 785 603 886 q 806 536 806 683 l 806 -175 l 633 -176 l 633 524 q 581 662 633 608 q 451 715 529 715 q 322 665 374 715 q 271 540 271 615 l 269 415 l 558 415 l 561 243 "},"B":{"ha":921,"x_min":99,"x_max":867,"o":"m 99 3 l 99 890 l 514 890 q 735 831 640 890 q 860 678 831 772 q 867 625 867 647 q 812 481 867 546 q 661 383 757 417 q 812 277 757 349 q 867 119 867 206 q 860 58 867 93 q 737 -112 831 -47 q 517 -176 643 -176 l 278 -176 l 278 -4 l 540 -4 q 650 40 606 -4 q 694 149 694 85 q 650 257 694 214 q 540 300 606 300 l 338 299 l 338 475 l 553 474 q 652 508 613 474 q 692 593 692 543 q 653 680 692 643 q 561 717 615 717 l 269 717 l 271 3 l 99 3 "},"C":{"ha":857,"x_min":99,"x_max":803,"o":"m 803 3 l 568 3 q 235 131 371 3 q 99 444 99 258 q 234 758 99 629 q 564 886 369 886 l 803 886 l 803 714 l 567 714 q 353 638 435 714 q 271 444 271 561 q 347 251 271 329 q 536 174 424 174 l 803 174 l 803 3 "},"D":{"ha":985,"x_min":99,"x_max":928,"o":"m 99 3 l 99 886 l 501 886 q 802 758 676 886 q 928 444 928 629 q 802 131 928 260 q 501 3 676 3 l 336 3 l 333 176 l 474 176 q 670 253 592 176 q 749 444 749 331 q 669 639 749 561 q 474 717 590 717 l 269 717 l 271 3 l 99 3 "},"E":{"ha":857,"x_min":97,"x_max":803,"o":"m 803 -175 l 449 -176 q 228 -112 324 -176 q 106 54 133 -47 q 97 119 97 88 q 150 278 97 207 q 296 386 203 349 q 149 486 200 424 q 97 625 97 549 q 106 683 97 654 q 230 831 136 775 q 446 886 324 886 l 803 886 l 803 717 l 390 717 q 304 681 340 717 q 268 593 268 644 q 303 506 268 542 q 389 471 339 471 l 803 471 l 803 299 l 417 300 q 311 256 354 300 q 268 149 268 211 q 310 40 268 83 q 417 -4 353 -4 l 803 0 l 803 -175 "},"F":{"ha":860,"x_min":99,"x_max":806,"o":"m 99 -175 l 100 536 q 201 785 100 683 q 450 886 303 886 l 806 886 l 806 714 l 450 714 q 324 663 375 714 q 272 536 272 611 l 272 471 l 806 471 l 806 299 l 272 299 l 272 -176 l 99 -175 "},"G":{"ha":921,"x_min":100,"x_max":863,"o":"m 863 592 l 863 3 l 538 3 q 226 131 353 3 q 100 444 100 258 q 227 758 100 629 q 538 886 354 886 l 863 886 l 863 717 l 538 715 q 348 637 425 715 q 271 444 271 558 q 348 252 271 331 q 538 174 425 174 l 692 174 l 692 590 l 863 592 "},"H":{"ha":921,"x_min":99,"x_max":865,"o":"m 99 3 l 100 886 l 272 886 l 272 3 l 99 3 m 338 532 l 693 531 l 693 886 l 865 886 l 865 -176 l 693 -176 l 693 358 l 338 358 l 338 532 "},"I":{"ha":299,"x_min":99,"x_max":272,"o":"m 99 3 l 100 886 l 272 886 l 272 3 l 99 3 "},"J":{"ha":735,"x_min":100,"x_max":688,"o":"m 688 893 l 688 418 q 567 122 688 242 q 272 3 446 3 l 100 3 l 100 174 l 272 174 q 445 244 375 174 q 515 418 515 314 l 514 893 l 688 893 "},"K":{"ha":928,"x_min":99,"x_max":869,"o":"m 99 886 l 279 886 l 279 531 l 514 531 q 643 585 590 531 q 696 718 696 639 l 694 886 l 869 886 l 869 746 q 818 560 869 640 q 678 444 767 481 q 818 331 767 410 q 869 153 869 251 l 869 -175 l 696 -176 l 694 181 q 642 307 694 256 q 513 358 589 358 l 278 358 l 278 3 l 99 3 l 99 886 "},"L":{"ha":671,"x_min":100,"x_max":625,"o":"m 625 3 l 100 3 l 100 886 l 272 886 l 269 176 l 625 176 l 625 3 "},"M":{"ha":1244,"x_min":99,"x_max":1214,"o":"m 99 3 l 99 886 l 447 886 q 657 803 572 886 q 742 599 742 719 l 742 3 l 574 3 l 572 596 q 537 680 572 646 q 449 714 501 714 l 271 714 l 271 3 l 99 3 m 742 886 l 919 886 q 1128 801 1042 886 q 1214 596 1214 717 l 1214 3 l 1042 3 l 1042 596 q 1006 680 1042 646 q 919 714 971 714 l 744 714 l 742 886 "},"N":{"ha":857,"x_min":99,"x_max":803,"o":"m 99 3 l 100 886 l 508 886 q 718 803 633 886 q 803 599 803 719 l 803 3 l 628 3 l 631 596 q 595 680 631 646 q 507 714 560 714 l 271 714 l 271 3 l 99 3 "},"O":{"ha":1047,"x_min":100,"x_max":985,"o":"m 985 444 q 857 131 985 258 q 543 3 729 3 q 228 131 356 3 q 100 444 100 258 q 228 760 100 632 q 543 888 356 888 q 858 759 731 888 q 985 444 985 631 m 808 449 q 732 638 808 560 q 543 715 656 715 q 350 638 428 715 q 272 444 272 560 q 350 251 272 329 q 543 174 428 174 q 733 252 657 174 q 808 449 808 331 "},"P":{"ha":988,"x_min":99,"x_max":928,"o":"m 99 -175 l 100 886 l 481 886 q 799 758 669 886 q 928 444 928 631 q 799 131 928 258 q 481 3 669 3 l 336 3 l 336 174 l 478 174 q 670 252 592 174 q 749 444 749 331 q 669 639 749 561 q 474 717 590 717 l 269 717 l 271 -176 l 99 -175 "},"Q":{"ha":1047,"x_min":100,"x_max":985,"o":"m 985 444 q 938 257 985 346 q 819 107 892 168 q 935 -12 896 57 q 974 -175 974 -81 l 813 -175 q 769 -44 813 -96 q 656 24 726 7 q 605 6 628 10 q 543 3 582 3 q 228 131 356 3 q 100 444 100 258 q 228 760 100 632 q 543 888 356 888 q 858 759 731 888 q 985 444 985 631 m 808 449 q 732 638 808 560 q 543 715 656 715 q 350 638 428 715 q 272 444 272 560 q 350 251 272 329 q 543 174 428 174 q 733 252 657 174 q 808 449 808 331 "},"R":{"ha":921,"x_min":99,"x_max":865,"o":"m 99 3 l 100 886 l 539 886 q 743 822 657 886 q 856 656 829 758 q 864 588 864 619 q 816 434 864 504 q 686 326 768 364 l 665 321 q 813 227 760 293 q 865 76 865 161 l 865 -176 l 693 -176 l 692 63 q 638 188 692 136 q 508 239 583 239 l 338 239 l 338 411 l 517 411 q 644 456 593 411 q 696 564 696 500 q 643 672 696 628 q 514 717 590 717 l 269 717 l 272 3 l 99 3 "},"S":{"ha":611,"x_min":99,"x_max":568,"o":"m 99 3 l 272 3 q 482 89 396 3 q 568 299 568 175 q 490 499 568 419 q 349 632 419 565 q 272 886 272 726 l 100 886 q 178 611 100 713 q 323 475 249 544 q 397 299 397 406 q 361 210 397 246 q 272 174 325 174 l 100 174 l 99 3 "},"T":{"ha":921,"x_min":100,"x_max":865,"o":"m 394 3 l 397 714 l 100 714 l 100 886 l 865 886 l 865 714 l 568 714 l 568 3 l 394 3 "},"U":{"ha":864,"x_min":103,"x_max":810,"o":"m 808 886 l 810 3 l 483 3 l 451 3 q 204 106 306 3 q 103 358 103 208 l 103 886 l 274 886 l 274 364 l 274 358 q 326 227 274 281 q 453 174 378 174 l 636 174 l 636 886 l 808 886 "},"V":{"ha":1011,"x_min":100,"x_max":953,"o":"m 269 886 l 604 174 q 771 603 771 514 q 628 708 771 694 q 397 714 574 714 l 397 886 q 808 843 688 886 q 953 649 953 792 q 887 392 953 553 q 688 3 821 232 l 515 3 l 100 886 l 269 886 "},"W":{"ha":1490,"x_min":100,"x_max":1454,"o":"m 922 888 l 1074 886 q 1312 791 1210 886 q 1444 543 1414 696 q 1454 443 1454 496 q 1397 209 1454 315 q 1238 47 1339 103 q 1068 1 1154 1 q 906 44 983 1 q 772 167 829 88 q 643 43 717 85 q 485 1 569 1 q 398 13 442 1 q 314 47 354 24 q 156 213 213 107 q 100 442 100 318 q 110 543 100 496 q 244 794 142 700 q 479 888 346 888 l 625 886 l 621 722 l 472 722 q 330 633 388 710 q 272 444 272 557 q 331 252 272 331 q 478 174 390 174 q 632 226 574 174 q 690 358 690 279 l 692 886 l 863 886 l 863 358 q 912 227 863 281 q 1035 174 961 174 q 1210 251 1143 174 q 1276 444 1276 329 q 1215 638 1276 560 q 1065 715 1154 715 l 925 718 l 922 888 "},"X":{"ha":921,"x_min":99,"x_max":863,"o":"m 99 890 q 322 833 224 890 q 481 679 414 781 q 646 833 551 783 q 863 890 729 876 l 863 717 q 642 632 724 717 q 568 446 568 556 q 642 260 568 336 q 863 176 722 176 l 863 3 q 650 60 738 14 q 481 214 553 111 q 326 69 415 119 q 99 3 238 18 l 99 176 q 321 261 238 176 q 394 444 394 336 q 319 632 394 554 q 99 717 238 717 l 99 890 "},"Y":{"ha":1054,"x_min":96,"x_max":993,"o":"m 96 886 l 456 3 l 551 3 l 594 86 l 272 886 l 96 886 m 618 -175 q 904 352 815 150 q 993 668 993 554 q 919 822 993 772 q 713 878 857 864 q 397 886 622 886 l 397 714 q 703 697 633 714 q 807 582 807 672 q 456 -176 807 444 l 618 -175 "},"Z":{"ha":921,"x_min":99,"x_max":865,"o":"m 99 886 l 865 886 l 865 714 l 301 174 l 865 174 l 865 3 l 100 3 l 100 174 l 651 714 l 100 714 l 99 886 "},"[":{"ha":365,"x_min":99,"x_max":333,"o":"m 99 -175 l 99 886 l 333 886 l 333 833 l 215 833 l 215 -122 l 328 -122 l 328 -176 l 99 -175 "},"\\":{"ha":671,"x_min":103,"x_max":631,"o":"m 454 3 l 103 826 l 275 826 l 631 3 l 454 3 "},"]":{"ha":365,"x_min":103,"x_max":333,"o":"m 333 -175 l 103 -176 l 103 -122 l 221 -122 l 221 833 l 103 833 l 103 886 l 333 886 l 333 -175 "},"^":{"ha":450,"x_min":99,"x_max":414,"o":"m 165 796 l 260 886 l 347 796 l 414 796 l 257 954 l 99 796 l 165 796 "},"_":{"ha":861,"x_min":99,"x_max":806,"o":"m 99 39 l 806 39 l 806 0 l 99 0 l 99 39 "},"`":{"ha":694,"x_min":0,"x_max":0,"o":""},"a":{"ha":857,"x_min":100,"x_max":803,"o":"m 632 3 l 633 536 l 447 538 q 322 485 372 538 q 271 356 271 433 q 322 226 271 279 q 447 174 374 174 l 568 174 l 568 3 l 449 3 q 200 104 300 3 q 100 356 100 206 q 201 608 100 504 q 447 713 303 713 l 803 713 l 803 3 l 632 3 "},"b":{"ha":857,"x_min":99,"x_max":806,"o":"m 99 886 l 100 3 l 450 3 q 703 104 600 3 q 806 356 806 206 q 702 609 806 506 q 447 713 599 713 l 333 713 l 336 536 l 450 538 q 581 485 528 538 q 633 356 633 432 q 581 226 633 279 q 450 174 528 174 l 271 174 l 269 886 l 99 886 "},"c":{"ha":671,"x_min":99,"x_max":626,"o":"m 625 3 l 449 3 q 199 105 300 3 q 99 356 99 207 q 200 608 99 504 q 447 713 301 713 l 625 713 l 626 536 l 447 538 q 322 485 372 538 q 271 356 271 433 q 322 228 271 279 q 450 176 374 176 l 625 176 l 625 3 "},"d":{"ha":861,"x_min":99,"x_max":806,"o":"m 806 886 l 806 3 l 449 3 q 199 105 300 3 q 99 356 99 207 q 200 608 99 504 q 447 713 301 713 l 564 713 l 564 539 l 447 539 q 321 486 371 539 q 271 356 271 433 q 322 226 271 279 q 447 174 374 174 l 633 174 l 633 886 l 806 886 "},"e":{"ha":857,"x_min":99,"x_max":804,"o":"m 803 3 l 449 3 q 199 105 300 3 q 99 356 99 207 q 200 607 99 504 q 449 710 301 710 l 803 713 l 803 539 l 626 239 l 454 239 l 626 536 l 447 538 q 322 485 372 538 q 271 356 271 433 q 322 226 271 279 q 447 174 374 174 l 804 174 l 803 3 "},"f":{"ha":549,"x_min":99,"x_max":510,"o":"m 99 3 l 100 596 q 184 802 100 718 q 390 886 268 886 l 510 886 l 510 714 l 390 714 q 306 680 340 714 q 272 596 272 646 l 272 471 l 510 471 l 510 299 l 272 299 l 272 3 l 99 3 "},"g":{"ha":861,"x_min":100,"x_max":806,"o":"m 806 713 l 806 3 q 754 -125 806 -74 q 628 -176 703 -176 l 278 -176 l 278 -4 l 633 -4 l 633 536 l 421 538 q 315 493 358 538 q 272 386 272 449 q 315 277 272 321 q 421 233 357 233 l 568 233 l 568 61 l 419 61 q 192 155 285 61 q 100 386 100 249 q 192 618 100 524 q 417 713 283 713 l 806 713 "},"h":{"ha":794,"x_min":99,"x_max":742,"o":"m 99 3 l 100 886 l 272 886 l 272 708 l 447 710 q 657 625 572 710 q 742 418 742 540 l 742 3 l 574 3 l 572 418 q 536 501 572 467 q 449 536 500 536 l 271 536 l 269 3 l 99 3 "},"i":{"ha":299,"x_min":99,"x_max":272,"o":"m 99 3 l 100 649 l 272 649 l 272 3 l 99 3 m 99 717 l 100 886 l 272 886 l 269 717 l 99 717 "},"j":{"ha":485,"x_min":100,"x_max":450,"o":"m 276 717 l 278 886 l 450 886 l 447 717 l 276 717 m 447 649 l 450 61 q 381 -107 450 -37 q 213 -176 311 -176 l 100 -176 l 100 -4 l 213 -4 q 260 17 242 -1 q 278 61 278 35 l 278 649 l 447 649 "},"k":{"ha":799,"x_min":99,"x_max":747,"o":"m 99 3 l 100 886 l 272 886 l 272 531 l 397 531 q 524 582 472 531 q 575 708 575 633 l 747 708 q 706 551 747 621 q 589 447 664 482 q 704 339 661 411 q 747 181 747 267 l 747 3 l 575 3 l 575 181 q 521 307 575 256 q 389 358 467 358 l 271 358 l 271 3 l 99 3 "},"l":{"ha":299,"x_min":99,"x_max":272,"o":"m 99 3 l 100 886 l 272 886 l 272 3 l 99 3 "},"m":{"ha":1164,"x_min":99,"x_max":1096,"o":"m 99 3 l 99 710 l 389 708 q 597 624 513 708 q 682 418 682 539 l 682 3 l 511 3 l 511 418 q 476 502 511 468 q 389 536 440 536 l 271 536 l 271 3 l 99 3 m 685 710 l 801 708 q 1010 624 925 708 q 1096 418 1096 540 l 1096 3 l 919 3 l 919 418 q 885 501 919 467 q 799 536 850 536 l 685 539 l 685 710 "},"n":{"ha":803,"x_min":99,"x_max":749,"o":"m 99 3 l 99 710 l 394 708 q 646 607 543 708 q 749 361 749 506 l 749 3 l 576 3 l 575 361 q 522 485 575 435 q 392 536 468 536 l 274 536 l 274 3 l 99 3 "},"o":{"ha":857,"x_min":96,"x_max":804,"o":"m 804 356 q 701 104 804 206 q 450 3 599 3 q 198 105 300 3 q 96 356 96 207 q 199 607 96 504 q 450 710 301 710 q 701 607 599 710 q 804 356 804 504 m 628 363 q 577 487 628 436 q 450 538 526 538 q 321 485 374 538 q 268 356 268 432 q 321 226 268 279 q 450 174 374 174 q 580 226 528 174 q 632 356 632 278 l 628 363 "},"p":{"ha":861,"x_min":99,"x_max":810,"o":"m 99 -175 l 99 713 l 450 713 q 706 609 603 713 q 810 356 810 506 q 706 105 810 207 q 453 3 603 3 l 339 3 l 339 174 l 453 174 q 585 226 532 174 q 638 356 638 279 q 584 483 638 431 q 450 542 531 535 l 274 542 l 274 -176 l 99 -175 "},"q":{"ha":854,"x_min":96,"x_max":800,"o":"m 628 -175 l 628 542 l 444 542 q 317 483 367 535 q 268 356 268 432 q 319 226 268 279 q 444 174 371 174 l 564 174 l 564 3 l 446 3 q 197 105 297 3 q 96 356 96 207 q 197 608 96 504 q 444 713 299 713 l 799 713 l 800 -176 l 628 -175 "},"r":{"ha":553,"x_min":99,"x_max":513,"o":"m 99 3 l 99 449 q 183 634 108 560 q 364 708 257 708 l 513 708 l 513 536 l 364 536 q 301 510 326 536 q 275 447 275 485 l 275 3 l 99 3 "},"s":{"ha":611,"x_min":99,"x_max":568,"o":"m 99 -175 l 272 -176 q 482 -90 396 -176 q 568 121 568 -4 q 490 301 568 215 q 349 454 419 378 q 272 708 272 560 l 100 708 q 178 410 100 532 q 321 253 213 356 q 397 121 397 181 q 361 32 397 68 q 272 -4 325 -4 l 100 -4 l 99 -175 "},"t":{"ha":611,"x_min":99,"x_max":568,"o":"m 269 890 l 272 708 l 568 708 l 568 536 l 272 536 l 272 299 q 306 210 272 246 q 389 174 339 174 l 567 174 l 567 3 l 389 3 q 183 90 267 3 q 99 301 99 176 l 99 890 l 269 890 "},"u":{"ha":799,"x_min":103,"x_max":749,"o":"m 749 710 l 749 3 l 393 3 q 187 88 271 3 q 103 299 103 174 l 103 708 l 274 708 l 275 299 q 310 210 275 246 q 393 174 344 174 l 575 174 l 575 708 l 749 710 "},"v":{"ha":925,"x_min":101,"x_max":867,"o":"m 101 708 l 274 708 l 540 150 q 696 449 696 386 q 628 519 696 501 q 397 536 561 536 l 397 708 q 756 669 644 708 q 867 524 867 629 q 629 3 867 378 l 451 3 l 101 708 "},"w":{"ha":1385,"x_min":100,"x_max":1333,"o":"m 867 713 l 978 713 q 1205 635 1108 713 q 1328 428 1301 558 q 1333 399 1329 419 q 1333 356 1333 376 q 1276 154 1333 242 q 1118 24 1219 67 q 1007 4 1060 4 q 841 53 918 4 q 719 190 764 103 q 593 53 672 103 q 425 3 514 3 q 324 19 374 3 q 160 153 219 61 q 100 357 100 244 q 101 391 100 376 q 106 422 103 406 q 228 635 135 557 q 446 713 321 713 l 549 713 l 549 542 l 446 542 q 320 483 371 535 q 269 356 269 431 q 321 226 269 279 q 446 174 372 174 q 576 226 522 174 q 629 347 629 278 l 632 708 l 803 708 l 803 356 q 856 226 803 279 q 983 174 908 174 q 1111 226 1058 174 q 1164 356 1164 279 q 1112 483 1164 432 q 981 542 1060 535 l 867 542 l 867 713 "},"x":{"ha":799,"x_min":99,"x_max":746,"o":"m 99 710 q 281 669 203 710 q 421 549 358 629 q 558 672 476 633 q 746 710 640 710 l 746 546 q 571 471 636 532 q 513 346 513 415 q 573 226 513 275 q 746 176 633 176 l 746 3 q 556 42 636 3 q 424 167 476 81 q 99 3 299 3 l 99 176 q 279 231 215 176 q 343 361 343 286 q 282 486 343 435 q 99 542 215 542 l 99 710 "},"y":{"ha":928,"x_min":99,"x_max":871,"o":"m 267 711 l 507 24 l 490 3 l 338 3 l 99 713 l 267 711 m 394 -169 q 615 228 549 90 q 681 436 681 367 q 563 533 681 521 q 397 536 536 536 l 397 708 q 762 670 653 708 q 871 522 871 632 q 568 -168 871 364 l 394 -169 "},"z":{"ha":799,"x_min":99,"x_max":747,"o":"m 99 710 l 747 708 l 747 536 l 314 174 l 747 174 l 747 3 l 100 3 l 100 174 l 521 536 l 100 536 l 99 710 "},"{":{"ha":493,"x_min":101,"x_max":453,"o":"m 453 -119 q 288 -34 356 -119 q 221 178 221 51 q 186 322 221 264 q 101 385 151 379 q 185 449 151 392 q 218 593 218 507 q 286 799 218 715 q 453 883 354 883 q 369 794 403 876 q 335 593 335 713 q 261 444 326 504 q 101 385 196 385 q 264 325 197 385 q 331 178 331 265 q 366 -30 331 54 q 453 -119 401 -114 "},"|":{"ha":299,"x_min":99,"x_max":272,"o":"m 99 -114 l 100 886 l 272 886 l 272 -117 l 99 -114 "},"}":{"ha":493,"x_min":103,"x_max":454,"o":"m 103 -119 q 267 -34 200 -119 q 335 178 335 51 q 369 322 335 264 q 454 385 404 379 q 371 449 404 392 q 338 593 338 507 q 269 799 338 715 q 103 883 201 883 q 187 794 153 876 q 221 593 221 713 q 294 444 229 504 q 454 385 360 385 q 292 325 358 385 q 225 178 225 265 q 190 -30 225 54 q 103 -119 154 -114 "},"~":{"ha":471,"x_min":99,"x_max":433,"o":"m 99 813 q 137 863 117 847 q 179 878 157 878 q 242 856 204 878 q 336 808 319 808 q 369 823 354 808 q 397 871 385 838 l 433 853 q 381 786 408 807 q 332 769 358 769 q 268 792 304 769 q 181 839 190 839 q 136 793 153 839 l 99 813 "},"":{"ha":694,"x_min":0,"x_max":0,"o":""},"":{"ha":694,"x_min":0,"x_max":0,"o":""},"‚":{"ha":694,"x_min":0,"x_max":0,"o":""},"ƒ":{"ha":694,"x_min":0,"x_max":0,"o":""},"„":{"ha":694,"x_min":0,"x_max":0,"o":""},"…":{"ha":694,"x_min":0,"x_max":0,"o":""},"†":{"ha":694,"x_min":0,"x_max":0,"o":""},"‡":{"ha":694,"x_min":0,"x_max":0,"o":""},"‰":{"ha":694,"x_min":0,"x_max":0,"o":""},"Š":{"ha":611,"x_min":99,"x_max":568,"o":"m 99 3 l 272 3 q 482 89 396 3 q 568 299 568 175 q 490 499 568 419 q 349 632 419 565 q 272 886 272 726 l 100 886 q 178 611 100 713 q 323 475 249 544 q 397 299 397 406 q 361 210 397 246 q 272 174 325 174 l 100 174 l 99 3 m 156 1229 l 283 1101 l 410 1229 l 464 1175 l 283 994 l 103 1175 l 156 1229 "},"‹":{"ha":694,"x_min":0,"x_max":0,"o":""},"Œ":{"ha":1306,"x_min":97,"x_max":1251,"o":"m 1251 843 l 1251 679 l 849 679 q 782 635 804 667 q 760 564 760 604 q 785 488 760 522 q 856 444 811 453 l 1251 444 l 1251 285 l 886 285 q 790 233 824 275 q 757 138 757 192 q 788 47 757 85 q 876 0 818 8 l 1251 0 l 1251 -168 l 900 -168 q 765 -123 817 -156 q 668 -21 713 -90 q 551 -133 611 -97 q 431 -169 492 -169 q 197 -19 296 -169 q 97 340 97 132 q 194 690 97 535 q 425 844 292 844 q 547 809 486 844 q 668 697 608 774 q 772 801 704 758 q 907 843 839 843 l 1251 843 m 258 340 q 310 596 258 503 q 424 679 356 679 q 542 593 493 679 q 596 340 596 497 q 544 92 596 182 q 424 1 492 1 q 310 85 356 1 q 258 340 258 178 "},"‘":{"ha":331,"x_min":103,"x_max":300,"o":"m 103 926 l 233 796 l 300 796 l 169 926 l 103 926 "},"’":{"ha":299,"x_min":100,"x_max":272,"o":"m 160 711 l 100 771 l 100 883 l 272 883 l 272 771 l 213 711 l 160 711 "},"“":{"ha":519,"x_min":99,"x_max":482,"o":"m 99 713 q 146 829 99 778 q 260 881 193 881 q 193 831 214 875 q 172 713 172 788 l 260 713 l 260 556 l 99 554 l 99 713 m 321 713 q 367 832 321 783 q 482 881 413 881 q 417 833 435 875 q 400 713 400 792 l 482 713 l 481 556 l 321 554 l 321 713 "},"”":{"ha":519,"x_min":97,"x_max":483,"o":"m 179 711 q 161 833 179 790 q 97 881 143 876 q 212 832 161 888 q 257 713 263 776 l 257 551 l 100 550 l 100 711 l 179 711 m 401 713 q 385 832 401 792 q 318 881 364 881 q 447 833 407 881 q 482 713 482 793 l 483 550 l 324 551 l 324 713 l 401 713 "},"•":{"ha":706,"x_min":101,"x_max":661,"o":"m 661 442 q 580 242 661 324 q 382 161 499 161 q 183 242 264 161 q 101 442 101 324 q 183 641 101 560 q 382 722 264 722 q 581 640 500 722 q 661 442 661 558 "},"–":{"ha":694,"x_min":99,"x_max":682,"o":"m 99 294 l 682 294 l 682 254 l 99 254 l 99 294 "},"—":{"ha":1389,"x_min":97,"x_max":1306,"o":"m 97 297 l 1306 297 l 1306 254 l 97 254 l 97 297 "},"™":{"ha":622,"x_min":99,"x_max":578,"o":"m 100 886 l 260 886 l 260 857 l 189 857 l 192 675 l 164 675 l 164 856 l 99 857 l 100 886 m 332 913 l 458 726 l 578 910 l 578 676 l 551 676 l 553 821 l 458 676 l 360 818 l 357 676 l 331 676 l 332 913 "},"š":{"ha":611,"x_min":99,"x_max":568,"o":"m 99 -175 l 272 -176 q 482 -90 396 -176 q 568 121 568 -4 q 490 301 568 215 q 349 454 419 378 q 272 708 272 560 l 100 708 q 178 410 100 532 q 321 253 213 356 q 397 121 397 181 q 361 32 397 68 q 272 -4 325 -4 l 100 -4 l 99 -175 m 156 1021 l 283 893 l 410 1021 l 464 967 l 283 786 l 103 967 l 156 1021 "},"›":{"ha":694,"x_min":0,"x_max":0,"o":""},"œ":{"ha":1333,"x_min":97,"x_max":1260,"o":"m 1260 672 l 1094 226 l 936 226 l 1047 510 l 914 510 q 799 450 838 499 q 761 336 761 401 q 801 219 761 269 q 914 161 842 168 l 1258 164 l 1258 3 l 913 3 q 780 40 836 11 q 682 126 724 69 q 567 35 633 65 q 428 4 501 4 q 200 92 294 4 q 97 340 97 186 q 197 588 97 494 q 419 672 289 672 q 564 641 496 672 q 682 547 632 610 q 784 639 725 606 q 910 672 843 672 l 1260 672 m 258 344 q 313 466 258 422 q 435 510 367 510 q 553 465 504 510 q 603 340 603 421 q 544 214 603 261 q 418 172 493 172 q 303 210 350 172 q 257 319 257 247 q 258 344 257 326 "},"Ÿ":{"ha":1054,"x_min":96,"x_max":993,"o":"m 96 886 l 456 3 l 551 3 l 594 86 l 272 886 l 96 886 m 618 -175 q 904 352 815 150 q 993 668 993 554 q 919 822 993 772 q 713 878 857 864 q 397 886 622 886 l 397 714 q 703 697 633 714 q 807 582 807 672 q 456 -176 807 444 l 618 -175 m 326 1165 l 493 1165 l 493 999 l 326 999 l 326 1165 m 614 1165 l 782 1165 l 782 999 l 614 999 l 614 1165 "}," ":{"ha":694,"x_min":0,"x_max":0,"o":""},"¡":{"ha":299,"x_min":100,"x_max":272,"o":"m 100 704 l 269 706 l 272 533 l 100 533 l 100 704 m 211 467 l 272 297 l 269 -175 l 100 -175 l 100 294 l 161 467 l 211 467 "},"¢":{"ha":660,"x_min":97,"x_max":617,"o":"m 372 843 l 476 840 l 476 706 l 613 706 l 613 536 l 417 536 q 303 472 343 522 q 264 358 264 422 q 304 241 264 293 q 417 175 344 189 l 617 175 l 617 4 l 481 4 l 481 -168 l 375 -168 l 375 11 q 167 142 242 40 q 97 357 97 235 q 165 569 97 478 q 372 701 239 669 l 372 843 "},"£":{"ha":707,"x_min":99,"x_max":660,"o":"m 658 0 l 101 -4 l 101 160 l 214 160 l 213 392 l 99 392 l 99 449 l 213 449 l 214 561 q 294 758 214 678 q 490 838 374 838 l 660 839 l 660 674 l 490 674 q 413 641 444 674 q 378 561 382 608 l 376 449 l 601 449 l 601 392 l 376 392 l 378 160 l 660 160 l 658 0 "},"¤":{"ha":694,"x_min":0,"x_max":0,"o":""},"¥":{"ha":694,"x_min":0,"x_max":0,"o":""},"¦":{"ha":694,"x_min":0,"x_max":0,"o":""},"§":{"ha":531,"x_min":86,"x_max":493,"o":"m 106 688 q 158 817 106 764 q 285 878 210 871 q 429 834 368 878 q 490 714 490 790 q 451 796 490 763 q 353 829 411 829 q 257 797 296 829 q 214 717 218 764 q 353 544 214 631 q 493 376 493 457 q 390 482 493 433 q 203 565 296 524 q 101 693 101 619 l 106 688 m 86 258 q 163 141 104 188 q 299 94 221 94 q 436 142 381 94 q 492 258 492 189 q 390 368 492 321 q 203 440 296 404 q 103 540 103 485 q 244 374 103 458 q 386 207 386 289 q 261 146 343 146 q 218 150 239 146 q 138 188 169 161 q 93 250 107 215 l 86 258 "},"©":{"ha":693,"x_min":99,"x_max":642,"o":"m 501 783 q 449 863 485 836 q 371 890 414 890 q 274 847 314 890 q 235 724 235 803 q 278 597 235 643 q 372 556 317 556 q 458 589 422 556 q 504 683 494 622 l 464 683 q 428 615 453 638 q 374 593 404 593 q 305 629 335 593 q 275 724 275 665 q 304 820 275 786 q 374 854 333 854 q 457 783 436 854 l 501 783 m 132 731 q 207 910 132 843 q 371 969 275 969 q 535 910 468 969 q 608 731 608 843 q 533 550 608 617 q 371 492 468 492 q 206 551 272 492 q 132 731 132 617 m 99 731 q 183 935 99 860 q 371 1001 258 1001 q 557 933 481 1001 q 642 731 642 858 q 557 526 642 601 q 371 460 482 460 q 183 528 260 460 q 99 731 99 603 "},"ª":{"ha":597,"x_min":94,"x_max":554,"o":"m 554 886 l 554 418 l 444 418 l 444 774 l 314 774 q 234 734 263 768 q 206 654 206 700 q 235 572 206 608 q 315 529 264 536 l 381 532 l 381 418 l 300 418 q 144 500 200 431 q 94 651 94 563 q 148 807 94 740 q 300 886 201 874 l 554 886 m 99 354 l 554 354 l 554 244 l 99 244 l 99 354 "},"«":{"ha":694,"x_min":0,"x_max":0,"o":""},"¬":{"ha":694,"x_min":0,"x_max":0,"o":""},"®":{"ha":693,"x_min":99,"x_max":642,"o":"m 257 572 l 257 888 l 411 888 q 475 861 451 888 q 499 800 499 835 q 456 725 499 747 q 492 653 490 713 q 510 582 493 594 l 507 572 l 457 572 q 451 614 451 585 l 451 642 q 442 687 451 669 q 404 707 432 704 l 300 707 l 300 572 l 257 572 m 300 854 l 404 854 q 442 840 429 857 q 456 797 456 822 q 444 758 456 774 q 411 743 432 742 l 300 743 l 300 854 m 132 731 q 207 910 132 843 q 371 969 275 969 q 535 910 468 969 q 608 731 608 843 q 533 550 608 617 q 371 492 468 492 q 206 551 272 492 q 132 731 132 617 m 99 731 q 183 935 99 860 q 371 1001 258 1001 q 557 933 481 1001 q 642 731 642 858 q 557 526 642 601 q 371 460 482 460 q 183 528 260 460 q 99 731 99 603 "},"¯":{"ha":694,"x_min":0,"x_max":0,"o":""},"°":{"ha":694,"x_min":0,"x_max":0,"o":""},"±":{"ha":694,"x_min":0,"x_max":0,"o":""},"²":{"ha":694,"x_min":0,"x_max":0,"o":""},"³":{"ha":694,"x_min":0,"x_max":0,"o":""},"µ":{"ha":694,"x_min":0,"x_max":0,"o":""},"¶":{"ha":749,"x_min":97,"x_max":701,"o":"m 701 886 l 701 107 l 601 107 l 601 836 l 528 836 l 528 107 l 433 104 l 433 388 q 179 464 272 388 q 97 632 97 532 q 182 807 97 735 q 431 886 275 886 l 701 886 m 433 833 q 260 772 324 833 q 203 638 203 717 q 261 500 203 557 q 433 438 325 438 q 607 500 543 438 q 664 638 664 556 q 606 772 664 717 q 433 833 542 833 "},"·":{"ha":694,"x_min":0,"x_max":0,"o":""},"∙":{"ha":694,"x_min":0,"x_max":0,"o":""},"¹":{"ha":694,"x_min":0,"x_max":0,"o":""},"º":{"ha":597,"x_min":99,"x_max":554,"o":"m 326 779 q 237 744 268 779 q 206 658 206 708 q 238 575 206 611 q 326 539 269 539 q 418 576 385 539 q 447 658 447 608 q 415 743 447 707 q 326 779 383 779 m 326 432 q 156 503 218 432 q 99 658 99 567 q 156 815 99 751 q 326 886 219 886 q 499 815 436 886 q 554 658 554 753 q 497 503 554 567 q 326 432 435 432 m 99 361 l 554 361 l 554 250 l 99 250 l 99 361 "},"»":{"ha":694,"x_min":0,"x_max":0,"o":""},"¼":{"ha":694,"x_min":0,"x_max":0,"o":""},"½":{"ha":694,"x_min":0,"x_max":0,"o":""},"¾":{"ha":694,"x_min":0,"x_max":0,"o":""},"¿":{"ha":538,"x_min":97,"x_max":499,"o":"m 499 467 q 197 365 308 467 q 97 142 97 274 q 197 -78 97 11 q 499 -176 308 -176 l 499 -4 q 483 -6 493 -4 l 460 -6 q 318 37 369 -6 q 267 136 267 79 q 325 247 267 201 q 499 299 389 299 l 499 467 m 331 706 l 497 706 l 497 535 l 331 535 l 331 706 "},"À":{"ha":860,"x_min":101,"x_max":806,"o":"m 561 243 l 101 243 l 101 536 q 204 785 101 683 q 454 886 307 886 q 704 785 603 886 q 806 536 806 683 l 806 -175 l 633 -176 l 633 524 q 581 662 633 608 q 451 715 529 715 q 322 665 374 715 q 271 540 271 615 l 269 415 l 558 415 l 561 243 m 396 1229 l 574 1051 l 517 994 l 339 1172 l 396 1229 "},"Á":{"ha":854,"x_min":101,"x_max":806,"o":"m 561 243 l 101 243 l 101 536 q 204 785 101 683 q 454 886 307 886 q 704 785 603 886 q 806 536 806 683 l 806 -175 l 633 -176 l 633 524 q 581 662 633 608 q 451 715 529 715 q 322 665 374 715 q 271 540 271 615 l 269 415 l 558 415 l 561 243 m 524 1229 l 578 1175 l 397 994 l 343 1049 l 524 1229 "},"Â":{"ha":854,"x_min":101,"x_max":806,"o":"m 561 243 l 101 243 l 101 536 q 204 785 101 683 q 454 886 307 886 q 704 785 603 886 q 806 536 806 683 l 806 -175 l 633 -176 l 633 524 q 581 662 633 608 q 451 715 529 715 q 322 665 374 715 q 271 540 271 615 l 269 415 l 558 415 l 561 243 m 276 1049 l 457 1229 l 638 1049 l 583 994 l 457 1122 l 329 994 l 276 1049 "},"Ã":{"ha":854,"x_min":101,"x_max":806,"o":"m 561 243 l 101 243 l 101 536 q 204 785 101 683 q 454 886 307 886 q 704 785 603 886 q 806 536 806 683 l 806 -175 l 633 -176 l 633 524 q 581 662 633 608 q 451 715 529 715 q 322 665 374 715 q 271 540 271 615 l 269 415 l 558 415 l 561 243 m 233 1074 q 308 1131 275 1114 q 369 1147 342 1147 q 436 1125 400 1147 q 535 1076 514 1076 q 582 1090 557 1076 q 638 1135 607 1103 l 685 1089 q 600 1018 639 1040 q 533 1000 567 1000 q 460 1022 500 1000 q 356 1071 372 1071 q 318 1061 336 1071 q 279 1028 300 1051 l 233 1074 "},"Ä":{"ha":854,"x_min":101,"x_max":806,"o":"m 561 243 l 101 243 l 101 536 q 204 785 101 683 q 454 886 307 886 q 704 785 603 886 q 806 536 806 683 l 806 -175 l 633 -176 l 633 524 q 581 662 633 608 q 451 715 529 715 q 322 665 374 715 q 271 540 271 615 l 269 415 l 558 415 l 561 243 m 229 1165 l 396 1165 l 396 999 l 229 999 l 229 1165 m 517 1165 l 685 1165 l 685 999 l 517 999 l 517 1165 "},"Å":{"ha":854,"x_min":101,"x_max":806,"o":"m 561 243 l 101 243 l 101 536 q 204 785 101 683 q 454 886 307 886 q 704 785 603 886 q 806 536 806 683 l 806 -175 l 633 -176 l 633 524 q 581 662 633 608 q 451 715 529 715 q 322 665 374 715 q 271 540 271 615 l 269 415 l 558 415 l 561 243 m 356 1058 q 385 1135 356 1108 q 458 1163 415 1163 q 531 1135 500 1163 q 561 1060 561 1107 q 531 983 561 1010 q 457 956 501 956 q 388 981 415 956 q 356 1058 356 1010 m 388 1060 q 408 1114 388 1096 q 458 1132 428 1132 q 508 1113 488 1132 q 528 1060 528 1094 q 507 1006 528 1025 q 458 986 486 986 q 408 1005 428 986 q 388 1060 388 1024 "},"Æ":{"ha":1139,"x_min":99,"x_max":1090,"o":"m 260 449 l 535 449 l 535 288 l 99 288 l 99 546 q 210 762 117 681 q 425 843 304 843 q 551 818 489 843 q 664 742 613 793 q 744 810 693 785 q 849 843 794 836 l 1090 843 l 1090 679 l 849 679 q 785 636 807 668 q 763 565 763 604 q 790 488 763 522 q 865 449 818 454 l 1090 449 l 1090 288 l 889 288 q 793 238 828 279 q 758 143 758 196 q 790 53 758 93 q 882 0 822 13 l 1090 0 l 1090 -164 l 849 -164 q 672 -78 744 -153 q 599 100 599 -3 l 599 539 q 536 644 585 607 q 428 681 488 681 q 319 643 367 681 q 260 539 272 606 l 260 449 "},"Ç":{"ha":857,"x_min":99,"x_max":803,"o":"m 803 3 l 568 3 q 235 131 371 3 q 99 444 99 258 q 234 758 99 629 q 564 886 369 886 l 803 886 l 803 714 l 567 714 q 353 638 435 714 q 271 444 271 561 q 347 251 271 329 q 536 174 424 174 l 803 174 l 803 3 m 619 -14 q 667 -60 651 -29 q 683 -124 683 -90 q 654 -210 683 -174 q 576 -246 625 -246 q 525 -235 556 -246 l 546 -194 q 574 -201 558 -201 q 615 -181 599 -201 q 631 -132 631 -161 q 614 -78 631 -106 q 565 -31 597 -50 l 565 0 l 619 0 l 619 -14 "},"È":{"ha":857,"x_min":97,"x_max":803,"o":"m 803 -175 l 449 -176 q 228 -112 324 -176 q 106 54 133 -47 q 97 119 97 88 q 150 278 97 207 q 296 386 203 349 q 149 486 200 424 q 97 625 97 549 q 106 683 97 654 q 230 831 136 775 q 446 886 324 886 l 803 886 l 803 717 l 390 717 q 304 681 340 717 q 268 593 268 644 q 303 506 268 542 q 389 471 339 471 l 803 471 l 803 299 l 417 300 q 311 256 354 300 q 268 149 268 211 q 310 40 268 83 q 417 -4 353 -4 l 803 0 l 803 -175 m 444 1229 l 622 1051 l 565 994 l 388 1172 l 444 1229 "},"É":{"ha":857,"x_min":97,"x_max":803,"o":"m 803 -175 l 449 -176 q 228 -112 324 -176 q 106 54 133 -47 q 97 119 97 88 q 150 278 97 207 q 296 386 203 349 q 149 486 200 424 q 97 625 97 549 q 106 683 97 654 q 230 831 136 775 q 446 886 324 886 l 803 886 l 803 717 l 390 717 q 304 681 340 717 q 268 593 268 644 q 303 506 268 542 q 389 471 339 471 l 803 471 l 803 299 l 417 300 q 311 256 354 300 q 268 149 268 211 q 310 40 268 83 q 417 -4 353 -4 l 803 0 l 803 -175 m 565 1229 l 619 1175 l 439 994 l 385 1049 l 565 1229 "},"Ê":{"ha":857,"x_min":97,"x_max":803,"o":"m 803 -175 l 449 -176 q 228 -112 324 -176 q 106 54 133 -47 q 97 119 97 88 q 150 278 97 207 q 296 386 203 349 q 149 486 200 424 q 97 625 97 549 q 106 683 97 654 q 230 831 136 775 q 446 886 324 886 l 803 886 l 803 717 l 390 717 q 304 681 340 717 q 268 593 268 644 q 303 506 268 542 q 389 471 339 471 l 803 471 l 803 299 l 417 300 q 311 256 354 300 q 268 149 268 211 q 310 40 268 83 q 417 -4 353 -4 l 803 0 l 803 -175 m 325 1049 l 506 1229 l 686 1049 l 632 994 l 506 1122 l 378 994 l 325 1049 "},"Ë":{"ha":857,"x_min":97,"x_max":803,"o":"m 803 -175 l 449 -176 q 228 -112 324 -176 q 106 54 133 -47 q 97 119 97 88 q 150 278 97 207 q 296 386 203 349 q 149 486 200 424 q 97 625 97 549 q 106 683 97 654 q 230 831 136 775 q 446 886 324 886 l 803 886 l 803 717 l 390 717 q 304 681 340 717 q 268 593 268 644 q 303 506 268 542 q 389 471 339 471 l 803 471 l 803 299 l 417 300 q 311 256 354 300 q 268 149 268 211 q 310 40 268 83 q 417 -4 353 -4 l 803 0 l 803 -175 m 278 1165 l 444 1165 l 444 999 l 278 999 l 278 1165 m 565 1165 l 733 1165 l 733 999 l 565 999 l 565 1165 "},"Ì":{"ha":299,"x_min":75,"x_max":310,"o":"m 99 3 l 100 886 l 272 886 l 272 3 l 99 3 m 132 1229 l 310 1051 l 253 994 l 75 1172 l 132 1229 "},"Í":{"ha":299,"x_min":72,"x_max":307,"o":"m 99 3 l 100 886 l 272 886 l 272 3 l 99 3 m 253 1229 l 307 1175 l 126 994 l 72 1049 l 253 1229 "},"Î":{"ha":299,"x_min":13,"x_max":374,"o":"m 99 3 l 100 886 l 272 886 l 272 3 l 99 3 m 13 1049 l 193 1229 l 374 1049 l 319 994 l 193 1122 l 65 994 l 13 1049 "},"Ï":{"ha":299,"x_min":-35,"x_max":421,"o":"m 99 3 l 100 886 l 272 886 l 272 3 l 99 3 m -35 1165 l 132 1165 l 132 999 l -35 999 l -35 1165 m 253 1165 l 421 1165 l 421 999 l 253 999 l 253 1165 "},"Ð":{"ha":694,"x_min":0,"x_max":0,"o":""},"Ñ":{"ha":857,"x_min":99,"x_max":803,"o":"m 99 3 l 100 886 l 508 886 q 718 803 633 886 q 803 599 803 719 l 803 3 l 628 3 l 631 596 q 595 680 631 646 q 507 714 560 714 l 271 714 l 271 3 l 99 3 m 226 1074 q 301 1131 268 1114 q 363 1147 335 1147 q 429 1125 393 1147 q 528 1076 507 1076 q 575 1090 550 1076 q 631 1135 600 1103 l 678 1089 q 593 1018 632 1040 q 526 1000 560 1000 q 453 1022 493 1000 q 349 1071 365 1071 q 311 1061 329 1071 q 272 1028 293 1051 l 226 1074 "},"Ò":{"ha":1047,"x_min":100,"x_max":985,"o":"m 985 444 q 857 131 985 258 q 543 3 729 3 q 228 131 356 3 q 100 444 100 258 q 228 760 100 632 q 543 888 356 888 q 858 759 731 888 q 985 444 985 631 m 808 449 q 732 638 808 560 q 543 715 656 715 q 350 638 428 715 q 272 444 272 560 q 350 251 272 329 q 543 174 428 174 q 733 252 657 174 q 808 449 808 331 m 486 1229 l 664 1051 l 607 994 l 429 1172 l 486 1229 "},"Ó":{"ha":1047,"x_min":100,"x_max":985,"o":"m 985 444 q 857 131 985 258 q 543 3 729 3 q 228 131 356 3 q 100 444 100 258 q 228 760 100 632 q 543 888 356 888 q 858 759 731 888 q 985 444 985 631 m 808 449 q 732 638 808 560 q 543 715 656 715 q 350 638 428 715 q 272 444 272 560 q 350 251 272 329 q 543 174 428 174 q 733 252 657 174 q 808 449 808 331 m 607 1229 l 661 1175 l 481 994 l 426 1049 l 607 1229 "},"Ô":{"ha":1047,"x_min":100,"x_max":985,"o":"m 985 444 q 857 131 985 258 q 543 3 729 3 q 228 131 356 3 q 100 444 100 258 q 228 760 100 632 q 543 888 356 888 q 858 759 731 888 q 985 444 985 631 m 808 449 q 732 638 808 560 q 543 715 656 715 q 350 638 428 715 q 272 444 272 560 q 350 251 272 329 q 543 174 428 174 q 733 252 657 174 q 808 449 808 331 m 367 1049 l 547 1229 l 728 1049 l 674 994 l 547 1122 l 419 994 l 367 1049 "},"Õ":{"ha":1047,"x_min":100,"x_max":985,"o":"m 985 444 q 857 131 985 258 q 543 3 729 3 q 228 131 356 3 q 100 444 100 258 q 228 760 100 632 q 543 888 356 888 q 858 759 731 888 q 985 444 985 631 m 808 449 q 732 638 808 560 q 543 715 656 715 q 350 638 428 715 q 272 444 272 560 q 350 251 272 329 q 543 174 428 174 q 733 252 657 174 q 808 449 808 331 m 317 1074 q 392 1131 358 1114 q 453 1147 425 1147 q 519 1125 483 1147 q 618 1076 597 1076 q 665 1090 640 1076 q 721 1135 690 1103 l 768 1089 q 683 1018 722 1040 q 617 1000 650 1000 q 543 1022 583 1000 q 439 1071 456 1071 q 401 1061 419 1071 q 363 1028 383 1051 l 317 1074 "},"Ö":{"ha":1047,"x_min":100,"x_max":985,"o":"m 985 444 q 857 131 985 258 q 543 3 729 3 q 228 131 356 3 q 100 444 100 258 q 228 760 100 632 q 543 888 356 888 q 858 759 731 888 q 985 444 985 631 m 808 449 q 732 638 808 560 q 543 715 656 715 q 350 638 428 715 q 272 444 272 560 q 350 251 272 329 q 543 174 428 174 q 733 252 657 174 q 808 449 808 331 m 326 1165 l 493 1165 l 493 999 l 326 999 l 326 1165 m 614 1165 l 782 1165 l 782 999 l 614 999 l 614 1165 "},"×":{"ha":694,"x_min":0,"x_max":0,"o":""},"Ø":{"ha":694,"x_min":0,"x_max":0,"o":""},"Ù":{"ha":864,"x_min":103,"x_max":810,"o":"m 808 886 l 810 3 l 483 3 l 451 3 q 204 106 306 3 q 103 358 103 208 l 103 886 l 274 886 l 274 364 l 274 358 q 326 227 274 281 q 453 174 378 174 l 636 174 l 636 886 l 808 886 m 396 1229 l 574 1051 l 517 994 l 339 1172 l 396 1229 "},"Ú":{"ha":864,"x_min":103,"x_max":810,"o":"m 808 886 l 810 3 l 483 3 l 451 3 q 204 106 306 3 q 103 358 103 208 l 103 886 l 274 886 l 274 364 l 274 358 q 326 227 274 281 q 453 174 378 174 l 636 174 l 636 886 l 808 886 m 517 1229 l 571 1175 l 390 994 l 336 1049 l 517 1229 "},"Û":{"ha":864,"x_min":103,"x_max":810,"o":"m 808 886 l 810 3 l 483 3 l 451 3 q 204 106 306 3 q 103 358 103 208 l 103 886 l 274 886 l 274 364 l 274 358 q 326 227 274 281 q 453 174 378 174 l 636 174 l 636 886 l 808 886 m 276 1049 l 457 1229 l 638 1049 l 583 994 l 457 1122 l 329 994 l 276 1049 "},"Ü":{"ha":864,"x_min":103,"x_max":810,"o":"m 808 886 l 810 3 l 483 3 l 451 3 q 204 106 306 3 q 103 358 103 208 l 103 886 l 274 886 l 274 364 l 274 358 q 326 227 274 281 q 453 174 378 174 l 636 174 l 636 886 l 808 886 m 229 1165 l 396 1165 l 396 999 l 229 999 l 229 1165 m 517 1165 l 685 1165 l 685 999 l 517 999 l 517 1165 "},"Ý":{"ha":1054,"x_min":96,"x_max":993,"o":"m 96 886 l 456 3 l 551 3 l 594 86 l 272 886 l 96 886 m 618 -175 q 904 352 815 150 q 993 668 993 554 q 919 822 993 772 q 713 878 857 864 q 397 886 622 886 l 397 714 q 703 697 633 714 q 807 582 807 672 q 456 -176 807 444 l 618 -175 m 614 1229 l 668 1175 l 488 994 l 433 1049 l 614 1229 "},"Þ":{"ha":694,"x_min":0,"x_max":0,"o":""},"ß":{"ha":889,"x_min":99,"x_max":835,"o":"m 99 3 l 100 510 q 181 735 100 650 q 389 836 254 814 q 433 842 419 842 q 464 842 446 842 q 660 800 571 842 q 793 686 749 758 q 828 571 828 631 q 689 363 828 443 q 835 132 835 272 q 813 31 835 79 q 679 -117 772 -64 q 467 -169 586 -169 l 269 -169 l 267 -4 l 518 -4 q 622 37 579 -4 q 664 139 664 78 q 622 242 664 201 q 518 282 581 282 l 325 282 l 325 446 l 457 447 q 597 478 540 447 q 661 558 654 510 q 606 644 661 610 q 464 678 551 678 q 326 646 382 678 q 264 567 269 614 l 263 3 l 99 3 "},"à":{"ha":856,"x_min":100,"x_max":803,"o":"m 632 3 l 633 536 l 447 538 q 322 485 372 538 q 271 356 271 433 q 322 226 271 279 q 447 174 374 174 l 568 174 l 568 3 l 449 3 q 200 104 300 3 q 100 356 100 206 q 201 608 100 504 q 447 713 303 713 l 803 713 l 803 3 l 632 3 m 444 1049 l 622 871 l 565 814 l 388 992 l 444 1049 "},"á":{"ha":856,"x_min":100,"x_max":803,"o":"m 632 3 l 633 536 l 447 538 q 322 485 372 538 q 271 356 271 433 q 322 226 271 279 q 447 174 374 174 l 568 174 l 568 3 l 449 3 q 200 104 300 3 q 100 356 100 206 q 201 608 100 504 q 447 713 303 713 l 803 713 l 803 3 l 632 3 m 565 1049 l 619 994 l 439 814 l 385 868 l 565 1049 "},"â":{"ha":856,"x_min":100,"x_max":803,"o":"m 632 3 l 633 536 l 447 538 q 322 485 372 538 q 271 356 271 433 q 322 226 271 279 q 447 174 374 174 l 568 174 l 568 3 l 449 3 q 200 104 300 3 q 100 356 100 206 q 201 608 100 504 q 447 713 303 713 l 803 713 l 803 3 l 632 3 m 325 868 l 506 1049 l 686 868 l 632 814 l 506 942 l 378 814 l 325 868 "},"ã":{"ha":856,"x_min":100,"x_max":803,"o":"m 632 3 l 633 536 l 447 538 q 322 485 372 538 q 271 356 271 433 q 322 226 271 279 q 447 174 374 174 l 568 174 l 568 3 l 449 3 q 200 104 300 3 q 100 356 100 206 q 201 608 100 504 q 447 713 303 713 l 803 713 l 803 3 l 632 3 m 275 893 q 350 950 317 933 q 411 967 383 967 q 478 944 442 967 q 576 896 556 896 q 624 909 599 896 q 679 954 649 922 l 726 908 q 642 838 681 860 q 575 819 608 819 q 501 842 542 819 q 397 890 414 890 q 360 881 378 890 q 321 847 342 871 l 275 893 "},"ä":{"ha":856,"x_min":100,"x_max":803,"o":"m 632 3 l 633 536 l 447 538 q 322 485 372 538 q 271 356 271 433 q 322 226 271 279 q 447 174 374 174 l 568 174 l 568 3 l 449 3 q 200 104 300 3 q 100 356 100 206 q 201 608 100 504 q 447 713 303 713 l 803 713 l 803 3 l 632 3 m 278 985 l 444 985 l 444 818 l 278 818 l 278 985 m 565 985 l 733 985 l 733 818 l 565 818 l 565 985 "},"å":{"ha":856,"x_min":100,"x_max":803,"o":"m 632 3 l 633 536 l 447 538 q 322 485 372 538 q 271 356 271 433 q 322 226 271 279 q 447 174 374 174 l 568 174 l 568 3 l 449 3 q 200 104 300 3 q 100 356 100 206 q 201 608 100 504 q 447 713 303 713 l 803 713 l 803 3 l 632 3 m 418 906 q 448 983 418 956 q 521 1010 478 1010 q 593 982 563 1010 q 624 907 624 954 q 594 830 624 857 q 519 803 564 803 q 450 828 478 803 q 418 906 418 857 m 450 907 q 470 961 450 943 q 521 979 490 979 q 570 960 550 979 q 590 907 590 942 q 569 853 590 872 q 521 833 549 833 q 470 852 490 833 q 450 907 450 871 "},"æ":{"ha":1333,"x_min":97,"x_max":1257,"o":"m 910 3 q 772 28 840 3 q 660 99 703 53 q 549 26 607 49 q 426 3 492 3 q 197 92 292 3 q 97 331 97 185 q 190 569 97 465 q 407 672 282 672 l 1257 672 l 1090 228 l 926 228 l 1040 508 l 910 508 q 793 447 836 500 q 756 336 756 401 q 797 222 756 272 q 910 164 838 172 l 1254 164 l 1254 3 l 910 3 m 594 335 q 538 210 588 254 q 426 167 489 167 q 315 208 363 167 q 256 333 264 254 q 302 455 256 401 q 417 508 349 508 l 594 508 l 594 335 "},"ç":{"ha":671,"x_min":99,"x_max":626,"o":"m 625 3 l 449 3 q 199 105 300 3 q 99 356 99 207 q 200 608 99 504 q 447 713 301 713 l 625 713 l 626 536 l 447 538 q 322 485 372 538 q 271 356 271 433 q 322 228 271 279 q 450 176 374 176 l 625 176 l 625 3 m 485 -14 q 533 -60 517 -29 q 549 -124 549 -90 q 519 -210 549 -174 q 442 -246 490 -246 q 390 -235 421 -246 l 411 -194 q 439 -201 424 -201 q 480 -181 464 -201 q 496 -132 496 -161 q 479 -78 496 -106 q 431 -31 463 -50 l 431 0 l 485 0 l 485 -14 "},"è":{"ha":856,"x_min":99,"x_max":804,"o":"m 803 3 l 449 3 q 199 105 300 3 q 99 356 99 207 q 200 607 99 504 q 449 710 301 710 l 803 713 l 803 539 l 626 239 l 454 239 l 626 536 l 447 538 q 322 485 372 538 q 271 356 271 433 q 322 226 271 279 q 447 174 374 174 l 804 174 l 803 3 m 486 1049 l 664 871 l 607 814 l 429 992 l 486 1049 "},"é":{"ha":856,"x_min":99,"x_max":804,"o":"m 803 3 l 449 3 q 199 105 300 3 q 99 356 99 207 q 200 607 99 504 q 449 710 301 710 l 803 713 l 803 539 l 626 239 l 454 239 l 626 536 l 447 538 q 322 485 372 538 q 271 356 271 433 q 322 226 271 279 q 447 174 374 174 l 804 174 l 803 3 m 607 1049 l 661 994 l 481 814 l 426 868 l 607 1049 "},"ê":{"ha":856,"x_min":99,"x_max":804,"o":"m 803 3 l 449 3 q 199 105 300 3 q 99 356 99 207 q 200 607 99 504 q 449 710 301 710 l 803 713 l 803 539 l 626 239 l 454 239 l 626 536 l 447 538 q 322 485 372 538 q 271 356 271 433 q 322 226 271 279 q 447 174 374 174 l 804 174 l 803 3 m 367 868 l 547 1049 l 728 868 l 674 814 l 547 942 l 419 814 l 367 868 "},"ë":{"ha":856,"x_min":99,"x_max":804,"o":"m 803 3 l 449 3 q 199 105 300 3 q 99 356 99 207 q 200 607 99 504 q 449 710 301 710 l 803 713 l 803 539 l 626 239 l 454 239 l 626 536 l 447 538 q 322 485 372 538 q 271 356 271 433 q 322 226 271 279 q 447 174 374 174 l 804 174 l 803 3 m 319 985 l 486 985 l 486 818 l 319 818 l 319 985 m 607 985 l 775 985 l 775 818 l 607 818 l 607 985 "},"ì":{"ha":299,"x_min":75,"x_max":310,"o":"m 99 3 l 100 649 l 272 649 l 272 3 l 99 3 m 132 986 l 310 808 l 253 751 l 75 929 l 132 986 "},"í":{"ha":299,"x_min":72,"x_max":307,"o":"m 99 3 l 100 649 l 272 649 l 272 3 l 99 3 m 253 986 l 307 932 l 126 751 l 72 806 l 253 986 "},"î":{"ha":299,"x_min":13,"x_max":374,"o":"m 99 3 l 100 649 l 272 649 l 272 3 l 99 3 m 13 806 l 193 986 l 374 806 l 319 751 l 193 879 l 65 751 l 13 806 "},"ï":{"ha":299,"x_min":-35,"x_max":421,"o":"m 99 3 l 100 649 l 272 649 l 272 3 l 99 3 m -35 922 l 132 922 l 132 756 l -35 756 l -35 922 m 253 922 l 421 922 l 421 756 l 253 756 l 253 922 "},"ð":{"ha":694,"x_min":0,"x_max":0,"o":""},"ñ":{"ha":803,"x_min":99,"x_max":749,"o":"m 99 3 l 99 710 l 394 708 q 646 607 543 708 q 749 361 749 506 l 749 3 l 576 3 l 575 361 q 522 485 575 435 q 392 536 468 536 l 274 536 l 274 3 l 99 3 m 178 865 q 253 922 219 906 q 314 939 286 939 q 381 917 344 939 q 479 868 458 868 q 526 881 501 868 q 582 926 551 894 l 629 881 q 544 810 583 832 q 478 792 511 792 q 404 814 444 792 q 300 863 317 863 q 263 853 281 863 q 224 819 244 843 l 178 865 "},"ò":{"ha":856,"x_min":96,"x_max":804,"o":"m 804 356 q 701 104 804 206 q 450 3 599 3 q 198 105 300 3 q 96 356 96 207 q 199 607 96 504 q 450 710 301 710 q 701 607 599 710 q 804 356 804 504 m 628 363 q 577 487 628 436 q 450 538 526 538 q 321 485 374 538 q 268 356 268 432 q 321 226 268 279 q 450 174 374 174 q 580 226 528 174 q 632 356 632 278 l 628 363 m 396 1049 l 574 871 l 517 814 l 339 992 l 396 1049 "},"ó":{"ha":856,"x_min":96,"x_max":804,"o":"m 804 356 q 701 104 804 206 q 450 3 599 3 q 198 105 300 3 q 96 356 96 207 q 199 607 96 504 q 450 710 301 710 q 701 607 599 710 q 804 356 804 504 m 628 363 q 577 487 628 436 q 450 538 526 538 q 321 485 374 538 q 268 356 268 432 q 321 226 268 279 q 450 174 374 174 q 580 226 528 174 q 632 356 632 278 l 628 363 m 517 1049 l 571 994 l 390 814 l 336 868 l 517 1049 "},"ô":{"ha":856,"x_min":96,"x_max":804,"o":"m 804 356 q 701 104 804 206 q 450 3 599 3 q 198 105 300 3 q 96 356 96 207 q 199 607 96 504 q 450 710 301 710 q 701 607 599 710 q 804 356 804 504 m 628 363 q 577 487 628 436 q 450 538 526 538 q 321 485 374 538 q 268 356 268 432 q 321 226 268 279 q 450 174 374 174 q 580 226 528 174 q 632 356 632 278 l 628 363 m 276 868 l 457 1049 l 638 868 l 583 814 l 457 942 l 329 814 l 276 868 "},"õ":{"ha":856,"x_min":96,"x_max":804,"o":"m 804 356 q 701 104 804 206 q 450 3 599 3 q 198 105 300 3 q 96 356 96 207 q 199 607 96 504 q 450 710 301 710 q 701 607 599 710 q 804 356 804 504 m 628 363 q 577 487 628 436 q 450 538 526 538 q 321 485 374 538 q 268 356 268 432 q 321 226 268 279 q 450 174 374 174 q 580 226 528 174 q 632 356 632 278 l 628 363 m 226 893 q 301 950 268 933 q 363 967 335 967 q 429 944 393 967 q 528 896 507 896 q 575 909 550 896 q 631 954 600 922 l 678 908 q 593 838 632 860 q 526 819 560 819 q 453 842 493 819 q 349 890 365 890 q 311 881 329 890 q 272 847 293 871 l 226 893 "},"ö":{"ha":856,"x_min":96,"x_max":804,"o":"m 804 356 q 701 104 804 206 q 450 3 599 3 q 198 105 300 3 q 96 356 96 207 q 199 607 96 504 q 450 710 301 710 q 701 607 599 710 q 804 356 804 504 m 628 363 q 577 487 628 436 q 450 538 526 538 q 321 485 374 538 q 268 356 268 432 q 321 226 268 279 q 450 174 374 174 q 580 226 528 174 q 632 356 632 278 l 628 363 m 229 985 l 396 985 l 396 818 l 229 818 l 229 985 m 517 985 l 685 985 l 685 818 l 517 818 l 517 985 "},"÷":{"ha":694,"x_min":0,"x_max":0,"o":""},"ø":{"ha":694,"x_min":0,"x_max":0,"o":""},"ù":{"ha":799,"x_min":103,"x_max":749,"o":"m 749 710 l 749 3 l 393 3 q 187 88 271 3 q 103 299 103 174 l 103 708 l 274 708 l 275 299 q 310 210 275 246 q 393 174 344 174 l 575 174 l 575 708 l 749 710 m 368 1021 l 546 843 l 489 786 l 311 964 l 368 1021 "},"ú":{"ha":799,"x_min":103,"x_max":749,"o":"m 749 710 l 749 3 l 393 3 q 187 88 271 3 q 103 299 103 174 l 103 708 l 274 708 l 275 299 q 310 210 275 246 q 393 174 344 174 l 575 174 l 575 708 l 749 710 m 489 1021 l 543 967 l 363 786 l 308 840 l 489 1021 "},"û":{"ha":799,"x_min":103,"x_max":749,"o":"m 749 710 l 749 3 l 393 3 q 187 88 271 3 q 103 299 103 174 l 103 708 l 274 708 l 275 299 q 310 210 275 246 q 393 174 344 174 l 575 174 l 575 708 l 749 710 m 249 840 l 429 1021 l 610 840 l 556 786 l 429 914 l 301 786 l 249 840 "},"ü":{"ha":799,"x_min":103,"x_max":749,"o":"m 749 710 l 749 3 l 393 3 q 187 88 271 3 q 103 299 103 174 l 103 708 l 274 708 l 275 299 q 310 210 275 246 q 393 174 344 174 l 575 174 l 575 708 l 749 710 m 201 957 l 368 957 l 368 790 l 201 790 l 201 957 m 489 957 l 657 957 l 657 790 l 489 790 l 489 957 "},"ý":{"ha":928,"x_min":99,"x_max":871,"o":"m 267 711 l 507 24 l 490 3 l 338 3 l 99 713 l 267 711 m 394 -169 q 615 228 549 90 q 681 436 681 367 q 563 533 681 521 q 397 536 536 536 l 397 708 q 762 670 653 708 q 871 522 871 632 q 568 -168 871 364 l 394 -169 m 538 1021 l 592 967 l 411 786 l 357 840 l 538 1021 "},"þ":{"ha":694,"x_min":0,"x_max":0,"o":""},"ÿ":{"ha":928,"x_min":99,"x_max":871,"o":"m 267 711 l 507 24 l 490 3 l 338 3 l 99 713 l 267 711 m 394 -169 q 615 228 549 90 q 681 436 681 367 q 563 533 681 521 q 397 536 536 536 l 397 708 q 762 670 653 708 q 871 522 871 632 q 568 -168 871 364 l 394 -169 m 250 957 l 417 957 l 417 790 l 250 790 l 250 957 m 538 957 l 706 957 l 706 790 l 538 790 l 538 957 "},"Ł":{"ha":694,"x_min":0,"x_max":0,"o":""},"ł":{"ha":694,"x_min":0,"x_max":0,"o":""},"∕":{"ha":806,"x_min":92,"x_max":751,"o":"m 751 639 l 136 24 l 92 69 l 706 682 l 751 639 "},"":{"ha":717,"x_min":99,"x_max":668,"o":"m 99 3 l 100 596 q 184 802 100 718 q 390 886 268 886 l 668 886 l 668 717 l 390 717 q 305 678 338 711 q 272 596 272 646 l 272 471 l 440 472 l 440 301 l 272 299 l 272 3 l 99 3 m 497 660 l 668 660 l 668 301 l 497 301 l 497 660 "},"":{"ha":717,"x_min":99,"x_max":668,"o":"m 99 3 l 100 596 q 184 802 100 718 q 390 886 268 886 l 668 886 l 668 3 l 497 3 l 497 717 l 390 717 q 305 678 338 711 q 272 596 272 646 l 272 471 l 440 472 l 440 301 l 272 299 l 272 3 l 99 3 "},"Ž":{"ha":921,"x_min":99,"x_max":865,"o":"m 99 886 l 865 886 l 865 714 l 301 174 l 865 174 l 865 3 l 100 3 l 100 174 l 651 714 l 100 714 l 99 886 m 350 1229 l 478 1101 l 604 1229 l 658 1175 l 478 994 l 297 1175 l 350 1229 "},"ž":{"ha":799,"x_min":99,"x_max":747,"o":"m 99 710 l 747 708 l 747 536 l 314 174 l 747 174 l 747 3 l 100 3 l 100 174 l 521 536 l 100 536 l 99 710 m 301 1021 l 429 893 l 556 1021 l 610 967 l 429 786 l 249 967 l 301 1021 "}}}
